<?xml version="1.0" encoding="iso-8859-1"?>
<!-- Generator: Adobe Illustrator 18.0.0, SVG Export Plug-In . SVG Version: 6.00 Build 0)  -->
<!DOCTYPE svg PUBLIC "-//W3C//DTD SVG 1.1//EN" "http://www.w3.org/Graphics/SVG/1.1/DTD/svg11.dtd">
<svg version="1.1" id="Capa_1" xmlns="http://www.w3.org/2000/svg" xmlns:xlink="http://www.w3.org/1999/xlink" x="0px" y="0px"
	 viewBox="0 0 492.916 492.916" style="enable-background:new 0 0 492.916 492.916;" xml:space="preserve">
<g>
	<path stroke="cyan" d="M246.458,0C165.182,0,99.06,66.123,99.06,147.398c0,48.078,30.043,83.908,31.322,85.41
		c14.702,17.264,29.096,49.595,32.087,72.072c0.008,0.058,0.017,0.115,0.026,0.172l12.565,71.76
		c0.166,1.227,0.393,2.438,0.651,3.641c0.004,0.04-0.001,0.079,0.004,0.12l10.276,75.399c2.864,20.371,22.766,36.944,44.366,36.944
		h32.2c21.6,0,41.502-16.573,44.369-36.963l10.265-75.44c0.265-1.222,0.496-2.454,0.664-3.701l12.565-71.76
		c0.01-0.057,0.019-0.115,0.026-0.172c2.992-22.478,17.386-54.809,32.087-72.072c1.279-1.501,31.322-37.331,31.322-85.41
		C393.856,66.123,327.734,0,246.458,0z M298.507,454.788c-2.297,16.337-18.423,29.628-35.949,29.628h-32.2
		c-13.371,0-25.919-7.74-32.141-18.655h54.93c2.347,0,4.25-1.903,4.25-4.25c0-2.347-1.903-4.25-4.25-4.25h-58.273
		c-0.185-0.811-0.347-1.627-0.463-2.455l-1.337-9.811h82.634c2.347,0,4.25-1.903,4.25-4.25s-1.903-4.25-4.25-4.25h-83.792
		l-4.492-32.955c9.908,11.429,24.487,18.878,39.803,18.878h38.462c15.309,0,29.881-7.442,39.789-18.862L298.507,454.788z
		 M265.689,413.919h-38.462c-1.28,0-2.553-0.065-3.818-0.187l-20.384-172.831c0.574,0.471,1.175,1.028,1.854,1.668
		c2.634,2.484,6.243,5.887,12.691,5.887c6.531,0,10.003-3.495,12.539-6.046c2.375-2.39,3.643-3.538,6.51-3.538
		c2.867,0,4.136,1.148,6.511,3.538c2.536,2.551,6.009,6.046,12.54,6.046c6.531,0,10.005-3.495,12.541-6.046
		c2.375-2.39,3.644-3.538,6.512-3.538c2.868,0,4.137,1.148,6.513,3.538c1.845,1.857,4.187,4.212,7.842,5.358l-19.562,165.962
		C268.25,413.853,266.972,413.919,265.689,413.919z M356.063,227.297c-15.578,18.292-30.831,52.531-34.03,76.374l-12.565,71.76
		c-0.01,0.057-0.019,0.115-0.026,0.172c-2.243,16.852-15.188,31.187-31.149,36.303L298,244.705c0.142-1.206-0.238-2.414-1.044-3.321
		c-0.807-0.907-1.962-1.426-3.176-1.426c-2.868,0-4.137-1.148-6.513-3.538c-2.536-2.552-6.01-6.046-12.541-6.046
		c-6.531,0-10.004,3.494-12.54,6.046c-2.375,2.39-3.645,3.538-6.513,3.538c-2.868,0-4.137-1.148-6.512-3.538
		c-2.536-2.552-6.009-6.046-12.54-6.046c-6.531,0-10.003,3.495-12.54,6.046c-2.374,2.39-3.643,3.538-6.51,3.538
		c-2.937,0-4.372-1.225-6.86-3.571c-2.634-2.485-6.242-5.887-12.691-5.887c-1.214,0-2.37,0.519-3.176,1.426
		c-0.807,0.907-1.187,2.116-1.044,3.322l20.835,176.663c-15.967-5.113-28.917-19.451-31.161-36.307
		c-0.008-0.058-0.017-0.115-0.026-0.172l-2.035-11.62h11.613c2.347,0,4.25-1.903,4.25-4.25s-1.903-4.25-4.25-4.25h-13.101
		l-9.042-51.64c-3.199-23.842-18.452-58.082-34.028-76.372c-0.034-0.04-0.466-0.559-1.179-1.481h42.351
		c2.347,0,4.25-1.903,4.25-4.25c0-2.347-1.903-4.25-4.25-4.25h-48.309c-3.454-5.362-7.666-12.687-11.492-21.499h25.303
		c2.347,0,4.25-1.903,4.25-4.25c0-2.347-1.903-4.25-4.25-4.25h-28.666c-4.19-11.656-7.304-25.237-7.304-39.921
		C107.56,70.81,169.869,8.5,246.458,8.5c76.396,0,138.578,61.998,138.891,138.321h-99.162c-2.347,0-4.25,1.903-4.25,4.25
		c0,2.347,1.903,4.25,4.25,4.25h98.865C381.988,196.286,356.336,226.975,356.063,227.297z"/>
	<path stroke="cyan" d="M246.458,27.793c-65.951,0-119.606,53.655-119.606,119.605c0,2.347,1.903,4.25,4.25,4.25c2.347,0,4.25-1.903,4.25-4.25
		c0-61.264,49.842-111.105,111.106-111.105c2.347,0,4.25-1.903,4.25-4.25C250.708,29.696,248.805,27.793,246.458,27.793z"/>
</g>
<g>
</g>
<g>
</g>
<g>
</g>
<g>
</g>
<g>
</g>
<g>
</g>
<g>
</g>
<g>
</g>
<g>
</g>
<g>
</g>
<g>
</g>
<g>
</g>
<g>
</g>
<g>
</g>
<g>
</g>
</svg>
